# xmcd
#
# Track frame offsets:
#	150
#	14260
#	31852
#	45930
#	66910
#	87730
#	100732
#	110442
#	135200
#	147767
#	168310
#
# Disc length: 2478 seconds
#
# Revision: 0
# Processed by: cddbd v1.5.2PL0 Copyright (c) Steve Scherf et al.
# Submitted via: dBpowerAMP V4.0
#
DISCID=8409ac0b
DTITLE=Starlene - Spitfire
DYEAR=1998
DGENRE=Country
TTITLE0=Winston 100s
TTITLE1=Drinkin' Tonight
TTITLE2=Every Little Bit
TTITLE3=End of the Road
TTITLE4=Best Actor
TTITLE5=Honky Tonk Angels
TTITLE6=Baptizing the Holy
TTITLE7=Rooms of Regret
TTITLE8=Lilac Sigh
TTITLE9=Guiding Light
TTITLE10=In the Darkness
EXTD=Starlene seems to be a local San Francisco Bay Area band.  
EXTT0=
EXTT1=
EXTT2=
EXTT3=
EXTT4=
EXTT5=
EXTT6=
EXTT7=
EXTT8=
EXTT9=
EXTT10=
PLAYORDER=
